<mxfile host="Electron" agent="Mozilla/5.0 (X11; Linux x86_64) AppleWebKit/537.36 (KHTML, like Gecko) draw.io/26.0.9 Chrome/128.0.6613.186 Electron/32.2.5 Safari/537.36" version="26.0.9">
  <diagram name="Page-1" id="B3UI_Krx_9UanOBIk5-d">
    <mxGraphModel dx="1195" dy="736" grid="1" gridSize="10" guides="1" tooltips="1" connect="1" arrows="1" fold="1" page="1" pageScale="1" pageWidth="1169" pageHeight="827" math="0" shadow="0">
      <root>
        <mxCell id="0" />
        <mxCell id="1" parent="0" />
        <mxCell id="tdU4zaPktYpznDprZkMg-3" value="" style="rounded=0;whiteSpace=wrap;html=1;align=left;verticalAlign=top;spacingLeft=4;spacingRight=4;fontFamily=Helvetica;fontSize=11;labelBackgroundColor=default;fillColor=#fff2cc;strokeColor=#d6b656;" vertex="1" parent="1">
          <mxGeometry x="40" y="20" width="950" height="660" as="geometry" />
        </mxCell>
        <mxCell id="FFYDgnO3itLQL77O1pYT-10" value="&lt;span style=&quot;&quot;&gt;+&lt;/span&gt;" style="endArrow=open;html=1;endSize=12;startArrow=diamondThin;startSize=14;startFill=0;align=left;verticalAlign=bottom;rounded=0;entryX=0.5;entryY=0;entryDx=0;entryDy=0;labelBackgroundColor=#FFF2CC;fontColor=default;" parent="1" source="FFYDgnO3itLQL77O1pYT-31" target="FFYDgnO3itLQL77O1pYT-43" edge="1">
          <mxGeometry x="-0.4805" y="-20" relative="1" as="geometry">
            <mxPoint x="849.26" y="214.98800000000006" as="sourcePoint" />
            <mxPoint x="845" y="240" as="targetPoint" />
            <mxPoint as="offset" />
          </mxGeometry>
        </mxCell>
        <mxCell id="FFYDgnO3itLQL77O1pYT-58" value="channels" style="edgeLabel;html=1;align=center;verticalAlign=middle;resizable=0;points=[];fontFamily=Helvetica;fontSize=11;fontColor=default;labelBackgroundColor=light-dark(#fff2cc, #ededed);" parent="FFYDgnO3itLQL77O1pYT-10" vertex="1" connectable="0">
          <mxGeometry x="0.2322" relative="1" as="geometry">
            <mxPoint as="offset" />
          </mxGeometry>
        </mxCell>
        <mxCell id="FFYDgnO3itLQL77O1pYT-15" value="1" style="endArrow=open;html=1;endSize=12;startArrow=diamondThin;startSize=14;startFill=0;align=left;verticalAlign=bottom;rounded=0;entryX=0.5;entryY=0;entryDx=0;entryDy=0;labelBackgroundColor=#FFF2CC;" parent="1" source="FFYDgnO3itLQL77O1pYT-31" target="FFYDgnO3itLQL77O1pYT-60" edge="1">
          <mxGeometry x="-0.341" y="15" relative="1" as="geometry">
            <mxPoint x="780.66" y="215.56000000000006" as="sourcePoint" />
            <mxPoint x="664.9999999999999" y="259.9999999999999" as="targetPoint" />
            <mxPoint as="offset" />
          </mxGeometry>
        </mxCell>
        <mxCell id="FFYDgnO3itLQL77O1pYT-57" value="info" style="edgeLabel;html=1;align=center;verticalAlign=middle;resizable=0;points=[];fontFamily=Helvetica;fontSize=11;fontColor=default;labelBackgroundColor=#FFF2CC;" parent="FFYDgnO3itLQL77O1pYT-15" vertex="1" connectable="0">
          <mxGeometry x="-0.0133" y="-1" relative="1" as="geometry">
            <mxPoint x="1" as="offset" />
          </mxGeometry>
        </mxCell>
        <mxCell id="FFYDgnO3itLQL77O1pYT-31" value="iio_dev" style="swimlane;fontStyle=0;childLayout=stackLayout;horizontal=1;startSize=20;fillColor=none;horizontalStack=0;resizeParent=1;resizeParentMax=0;resizeLast=0;collapsible=1;marginBottom=0;whiteSpace=wrap;html=1;fontFamily=Helvetica;fontSize=11;fontColor=default;labelBackgroundColor=none;" parent="1" vertex="1">
          <mxGeometry x="680" y="60" width="170" height="124" as="geometry">
            <mxRectangle x="230" y="240" width="80" height="30" as="alternateBounds" />
          </mxGeometry>
        </mxCell>
        <mxCell id="FFYDgnO3itLQL77O1pYT-59" value="current_mode: int" style="text;strokeColor=none;fillColor=none;align=left;verticalAlign=top;spacingLeft=4;spacingRight=4;overflow=hidden;rotatable=0;points=[[0,0.5],[1,0.5]];portConstraint=eastwest;whiteSpace=wrap;html=1;fontFamily=Helvetica;fontSize=11;fontColor=default;labelBackgroundColor=none;" parent="FFYDgnO3itLQL77O1pYT-31" vertex="1">
          <mxGeometry y="20" width="170" height="26" as="geometry" />
        </mxCell>
        <mxCell id="FFYDgnO3itLQL77O1pYT-33" value="modes: int" style="text;strokeColor=none;fillColor=none;align=left;verticalAlign=top;spacingLeft=4;spacingRight=4;overflow=hidden;rotatable=0;points=[[0,0.5],[1,0.5]];portConstraint=eastwest;whiteSpace=wrap;html=1;fontFamily=Helvetica;fontSize=11;fontColor=default;labelBackgroundColor=none;" parent="FFYDgnO3itLQL77O1pYT-31" vertex="1">
          <mxGeometry y="46" width="170" height="26" as="geometry" />
        </mxCell>
        <mxCell id="FFYDgnO3itLQL77O1pYT-32" value="name: str" style="text;strokeColor=none;fillColor=none;align=left;verticalAlign=top;spacingLeft=4;spacingRight=4;overflow=hidden;rotatable=0;points=[[0,0.5],[1,0.5]];portConstraint=eastwest;whiteSpace=wrap;html=1;fontFamily=Helvetica;fontSize=11;fontColor=default;labelBackgroundColor=none;" parent="FFYDgnO3itLQL77O1pYT-31" vertex="1">
          <mxGeometry y="72" width="170" height="26" as="geometry" />
        </mxCell>
        <mxCell id="FFYDgnO3itLQL77O1pYT-41" value="num_channels: int" style="text;strokeColor=none;fillColor=none;align=left;verticalAlign=top;spacingLeft=4;spacingRight=4;overflow=hidden;rotatable=0;points=[[0,0.5],[1,0.5]];portConstraint=eastwest;whiteSpace=wrap;html=1;fontFamily=Helvetica;fontSize=11;fontColor=default;labelBackgroundColor=none;" parent="FFYDgnO3itLQL77O1pYT-31" vertex="1">
          <mxGeometry y="98" width="170" height="26" as="geometry" />
        </mxCell>
        <mxCell id="FFYDgnO3itLQL77O1pYT-43" value="iio_chan_spec" style="swimlane;fontStyle=0;childLayout=stackLayout;horizontal=1;startSize=26;fillColor=none;horizontalStack=0;resizeParent=1;resizeParentMax=0;resizeLast=0;collapsible=1;marginBottom=0;whiteSpace=wrap;html=1;fontFamily=Helvetica;fontSize=11;fontColor=default;labelBackgroundColor=none;" parent="1" vertex="1">
          <mxGeometry x="810" y="260" width="140" height="182" as="geometry" />
        </mxCell>
        <mxCell id="FFYDgnO3itLQL77O1pYT-46" value="channel: int" style="text;strokeColor=none;fillColor=none;align=left;verticalAlign=top;spacingLeft=4;spacingRight=4;overflow=hidden;rotatable=0;points=[[0,0.5],[1,0.5]];portConstraint=eastwest;whiteSpace=wrap;html=1;fontFamily=Helvetica;fontSize=11;fontColor=default;labelBackgroundColor=none;" parent="FFYDgnO3itLQL77O1pYT-43" vertex="1">
          <mxGeometry y="26" width="140" height="26" as="geometry" />
        </mxCell>
        <mxCell id="FFYDgnO3itLQL77O1pYT-56" value="extend_name: str" style="text;strokeColor=none;fillColor=none;align=left;verticalAlign=top;spacingLeft=4;spacingRight=4;overflow=hidden;rotatable=0;points=[[0,0.5],[1,0.5]];portConstraint=eastwest;whiteSpace=wrap;html=1;fontFamily=Helvetica;fontSize=11;fontColor=default;labelBackgroundColor=none;" parent="FFYDgnO3itLQL77O1pYT-43" vertex="1">
          <mxGeometry y="52" width="140" height="26" as="geometry" />
        </mxCell>
        <mxCell id="FFYDgnO3itLQL77O1pYT-54" value="output: int" style="text;strokeColor=none;fillColor=none;align=left;verticalAlign=top;spacingLeft=4;spacingRight=4;overflow=hidden;rotatable=0;points=[[0,0.5],[1,0.5]];portConstraint=eastwest;whiteSpace=wrap;html=1;fontFamily=Helvetica;fontSize=11;fontColor=default;labelBackgroundColor=none;" parent="FFYDgnO3itLQL77O1pYT-43" vertex="1">
          <mxGeometry y="78" width="140" height="26" as="geometry" />
        </mxCell>
        <mxCell id="FFYDgnO3itLQL77O1pYT-44" value="indexed: int" style="text;strokeColor=none;fillColor=none;align=left;verticalAlign=top;spacingLeft=4;spacingRight=4;overflow=hidden;rotatable=0;points=[[0,0.5],[1,0.5]];portConstraint=eastwest;whiteSpace=wrap;html=1;fontFamily=Helvetica;fontSize=11;fontColor=default;labelBackgroundColor=none;" parent="FFYDgnO3itLQL77O1pYT-43" vertex="1">
          <mxGeometry y="104" width="140" height="26" as="geometry" />
        </mxCell>
        <mxCell id="FFYDgnO3itLQL77O1pYT-45" value="info_mask_separate: int" style="text;strokeColor=none;fillColor=none;align=left;verticalAlign=top;spacingLeft=4;spacingRight=4;overflow=hidden;rotatable=0;points=[[0,0.5],[1,0.5]];portConstraint=eastwest;whiteSpace=wrap;html=1;fontFamily=Helvetica;fontSize=11;fontColor=default;labelBackgroundColor=none;" parent="FFYDgnO3itLQL77O1pYT-43" vertex="1">
          <mxGeometry y="130" width="140" height="26" as="geometry" />
        </mxCell>
        <mxCell id="FFYDgnO3itLQL77O1pYT-55" value="type: int" style="text;strokeColor=none;fillColor=none;align=left;verticalAlign=top;spacingLeft=4;spacingRight=4;overflow=hidden;rotatable=0;points=[[0,0.5],[1,0.5]];portConstraint=eastwest;whiteSpace=wrap;html=1;fontFamily=Helvetica;fontSize=11;fontColor=default;labelBackgroundColor=none;" parent="FFYDgnO3itLQL77O1pYT-43" vertex="1">
          <mxGeometry y="156" width="140" height="26" as="geometry" />
        </mxCell>
        <mxCell id="FFYDgnO3itLQL77O1pYT-47" value="scan_type" style="swimlane;fontStyle=0;childLayout=stackLayout;horizontal=1;startSize=26;fillColor=none;horizontalStack=0;resizeParent=1;resizeParentMax=0;resizeLast=0;collapsible=1;marginBottom=0;whiteSpace=wrap;html=1;fontFamily=Helvetica;fontSize=11;fontColor=default;labelBackgroundColor=none;" parent="1" vertex="1">
          <mxGeometry x="620" y="470" width="140" height="182" as="geometry" />
        </mxCell>
        <mxCell id="FFYDgnO3itLQL77O1pYT-53" value="endianness: enum" style="text;strokeColor=none;fillColor=none;align=left;verticalAlign=top;spacingLeft=4;spacingRight=4;overflow=hidden;rotatable=0;points=[[0,0.5],[1,0.5]];portConstraint=eastwest;whiteSpace=wrap;html=1;fontFamily=Helvetica;fontSize=11;fontColor=default;labelBackgroundColor=none;" parent="FFYDgnO3itLQL77O1pYT-47" vertex="1">
          <mxGeometry y="26" width="140" height="26" as="geometry" />
        </mxCell>
        <mxCell id="FFYDgnO3itLQL77O1pYT-52" value="realbits: uint" style="text;strokeColor=none;fillColor=none;align=left;verticalAlign=top;spacingLeft=4;spacingRight=4;overflow=hidden;rotatable=0;points=[[0,0.5],[1,0.5]];portConstraint=eastwest;whiteSpace=wrap;html=1;fontFamily=Helvetica;fontSize=11;fontColor=default;labelBackgroundColor=none;" parent="FFYDgnO3itLQL77O1pYT-47" vertex="1">
          <mxGeometry y="52" width="140" height="26" as="geometry" />
        </mxCell>
        <mxCell id="FFYDgnO3itLQL77O1pYT-104" value="repeat: uint" style="text;strokeColor=none;fillColor=none;align=left;verticalAlign=top;spacingLeft=4;spacingRight=4;overflow=hidden;rotatable=0;points=[[0,0.5],[1,0.5]];portConstraint=eastwest;whiteSpace=wrap;html=1;fontFamily=Helvetica;fontSize=11;fontColor=default;labelBackgroundColor=none;" parent="FFYDgnO3itLQL77O1pYT-47" vertex="1">
          <mxGeometry y="78" width="140" height="26" as="geometry" />
        </mxCell>
        <mxCell id="FFYDgnO3itLQL77O1pYT-50" value="shift: uint" style="text;strokeColor=none;fillColor=none;align=left;verticalAlign=top;spacingLeft=4;spacingRight=4;overflow=hidden;rotatable=0;points=[[0,0.5],[1,0.5]];portConstraint=eastwest;whiteSpace=wrap;html=1;fontFamily=Helvetica;fontSize=11;fontColor=default;labelBackgroundColor=none;" parent="FFYDgnO3itLQL77O1pYT-47" vertex="1">
          <mxGeometry y="104" width="140" height="26" as="geometry" />
        </mxCell>
        <mxCell id="FFYDgnO3itLQL77O1pYT-48" value="sign: char" style="text;strokeColor=none;fillColor=none;align=left;verticalAlign=top;spacingLeft=4;spacingRight=4;overflow=hidden;rotatable=0;points=[[0,0.5],[1,0.5]];portConstraint=eastwest;whiteSpace=wrap;html=1;fontFamily=Helvetica;fontSize=11;fontColor=default;labelBackgroundColor=none;" parent="FFYDgnO3itLQL77O1pYT-47" vertex="1">
          <mxGeometry y="130" width="140" height="26" as="geometry" />
        </mxCell>
        <mxCell id="FFYDgnO3itLQL77O1pYT-49" value="storagebits: uint" style="text;strokeColor=none;fillColor=none;align=left;verticalAlign=top;spacingLeft=4;spacingRight=4;overflow=hidden;rotatable=0;points=[[0,0.5],[1,0.5]];portConstraint=eastwest;whiteSpace=wrap;html=1;fontFamily=Helvetica;fontSize=11;fontColor=default;labelBackgroundColor=none;" parent="FFYDgnO3itLQL77O1pYT-47" vertex="1">
          <mxGeometry y="156" width="140" height="26" as="geometry" />
        </mxCell>
        <mxCell id="FFYDgnO3itLQL77O1pYT-51" value="&lt;span&gt;1&lt;/span&gt;" style="endArrow=open;html=1;endSize=12;startArrow=diamondThin;startSize=14;startFill=0;align=left;verticalAlign=bottom;rounded=0;strokeColor=default;fontFamily=Helvetica;fontSize=11;fontColor=default;labelBackgroundColor=#FFF2CC;entryX=0.5;entryY=0;entryDx=0;entryDy=0;" parent="1" source="FFYDgnO3itLQL77O1pYT-43" target="FFYDgnO3itLQL77O1pYT-47" edge="1">
          <mxGeometry x="-0.6917" y="16" relative="1" as="geometry">
            <mxPoint x="860" y="330" as="sourcePoint" />
            <mxPoint x="1020" y="330" as="targetPoint" />
            <mxPoint as="offset" />
          </mxGeometry>
        </mxCell>
        <mxCell id="FFYDgnO3itLQL77O1pYT-67" value="scan_type" style="edgeLabel;html=1;align=center;verticalAlign=middle;resizable=0;points=[];fontFamily=Helvetica;fontSize=11;fontColor=default;labelBackgroundColor=#FFF2CC;" parent="FFYDgnO3itLQL77O1pYT-51" vertex="1" connectable="0">
          <mxGeometry x="0.0719" relative="1" as="geometry">
            <mxPoint as="offset" />
          </mxGeometry>
        </mxCell>
        <mxCell id="FFYDgnO3itLQL77O1pYT-60" value="iio_info" style="swimlane;fontStyle=0;childLayout=stackLayout;horizontal=1;startSize=26;fillColor=none;horizontalStack=0;resizeParent=1;resizeParentMax=0;resizeLast=0;collapsible=1;marginBottom=0;whiteSpace=wrap;html=1;fontFamily=Helvetica;fontSize=11;fontColor=default;labelBackgroundColor=none;" parent="1" vertex="1">
          <mxGeometry x="440" y="260" width="360" height="130" as="geometry" />
        </mxCell>
        <mxCell id="FFYDgnO3itLQL77O1pYT-61" value="read_raw(iio_dev*, iio_chan_spec*, int *val, int *val2, int mask) -&amp;gt; int" style="text;strokeColor=none;fillColor=none;align=left;verticalAlign=top;spacingLeft=4;spacingRight=4;overflow=hidden;rotatable=0;points=[[0,0.5],[1,0.5]];portConstraint=eastwest;whiteSpace=wrap;html=1;fontFamily=Helvetica;fontSize=11;fontColor=default;labelBackgroundColor=none;" parent="FFYDgnO3itLQL77O1pYT-60" vertex="1">
          <mxGeometry y="26" width="360" height="26" as="geometry" />
        </mxCell>
        <mxCell id="FFYDgnO3itLQL77O1pYT-62" value="write_raw(iio_dev*, iio_chan_spec*, val: int, val2: int, mask: int)" style="text;strokeColor=none;fillColor=none;align=left;verticalAlign=top;spacingLeft=4;spacingRight=4;overflow=hidden;rotatable=0;points=[[0,0.5],[1,0.5]];portConstraint=eastwest;whiteSpace=wrap;html=1;fontFamily=Helvetica;fontSize=11;fontColor=default;labelBackgroundColor=none;" parent="FFYDgnO3itLQL77O1pYT-60" vertex="1">
          <mxGeometry y="52" width="360" height="26" as="geometry" />
        </mxCell>
        <mxCell id="FFYDgnO3itLQL77O1pYT-65" value="other read...() functions" style="text;strokeColor=none;fillColor=none;align=left;verticalAlign=top;spacingLeft=4;spacingRight=4;overflow=hidden;rotatable=0;points=[[0,0.5],[1,0.5]];portConstraint=eastwest;whiteSpace=wrap;html=1;fontFamily=Helvetica;fontSize=11;fontColor=default;labelBackgroundColor=none;" parent="FFYDgnO3itLQL77O1pYT-60" vertex="1">
          <mxGeometry y="78" width="360" height="26" as="geometry" />
        </mxCell>
        <mxCell id="FFYDgnO3itLQL77O1pYT-66" value="other write...() function" style="text;strokeColor=none;fillColor=none;align=left;verticalAlign=top;spacingLeft=4;spacingRight=4;overflow=hidden;rotatable=0;points=[[0,0.5],[1,0.5]];portConstraint=eastwest;whiteSpace=wrap;html=1;fontFamily=Helvetica;fontSize=11;fontColor=default;labelBackgroundColor=none;" parent="FFYDgnO3itLQL77O1pYT-60" vertex="1">
          <mxGeometry y="104" width="360" height="26" as="geometry" />
        </mxCell>
        <mxCell id="FFYDgnO3itLQL77O1pYT-69" value="Priv contains context-specific stuff like the I2C client" style="rounded=1;whiteSpace=wrap;html=1;fontFamily=Helvetica;fontSize=11;labelBackgroundColor=none;fillColor=#d5e8d4;strokeColor=#82b366;" parent="1" vertex="1">
          <mxGeometry x="455" y="124" width="120" height="60" as="geometry" />
        </mxCell>
        <mxCell id="FFYDgnO3itLQL77O1pYT-73" value="iio/iio.h" style="swimlane;fontStyle=0;childLayout=stackLayout;horizontal=1;startSize=26;fillColor=none;horizontalStack=0;resizeParent=1;resizeParentMax=0;resizeLast=0;collapsible=1;marginBottom=0;whiteSpace=wrap;html=1;fontFamily=Helvetica;fontSize=11;fontColor=default;labelBackgroundColor=none;dashed=1;" parent="1" vertex="1">
          <mxGeometry x="90" y="60" width="320" height="182" as="geometry" />
        </mxCell>
        <mxCell id="FFYDgnO3itLQL77O1pYT-74" value="iio_device_alloc(device *parent, int szeof_priv) -&amp;gt; iio_dev*" style="text;strokeColor=#82b366;fillColor=#d5e8d4;align=left;verticalAlign=top;spacingLeft=4;spacingRight=4;overflow=hidden;rotatable=0;points=[[0,0.5],[1,0.5]];portConstraint=eastwest;whiteSpace=wrap;html=1;fontFamily=Helvetica;fontSize=11;labelBackgroundColor=none;" parent="FFYDgnO3itLQL77O1pYT-73" vertex="1">
          <mxGeometry y="26" width="320" height="26" as="geometry" />
        </mxCell>
        <mxCell id="FFYDgnO3itLQL77O1pYT-75" value="iio_device_register(iio_dev*) -&amp;gt; int" style="text;strokeColor=none;fillColor=none;align=left;verticalAlign=top;spacingLeft=4;spacingRight=4;overflow=hidden;rotatable=0;points=[[0,0.5],[1,0.5]];portConstraint=eastwest;whiteSpace=wrap;html=1;fontFamily=Helvetica;fontSize=11;fontColor=default;labelBackgroundColor=none;" parent="FFYDgnO3itLQL77O1pYT-73" vertex="1">
          <mxGeometry y="52" width="320" height="26" as="geometry" />
        </mxCell>
        <mxCell id="tdU4zaPktYpznDprZkMg-1" value="iio_device_unregister()" style="text;strokeColor=none;fillColor=none;align=left;verticalAlign=top;spacingLeft=4;spacingRight=4;overflow=hidden;rotatable=0;points=[[0,0.5],[1,0.5]];portConstraint=eastwest;whiteSpace=wrap;html=1;fontFamily=Helvetica;fontSize=11;fontColor=default;labelBackgroundColor=none;" vertex="1" parent="FFYDgnO3itLQL77O1pYT-73">
          <mxGeometry y="78" width="320" height="26" as="geometry" />
        </mxCell>
        <mxCell id="tdU4zaPktYpznDprZkMg-2" value="iio_device_free()" style="text;strokeColor=none;fillColor=none;align=left;verticalAlign=top;spacingLeft=4;spacingRight=4;overflow=hidden;rotatable=0;points=[[0,0.5],[1,0.5]];portConstraint=eastwest;whiteSpace=wrap;html=1;fontFamily=Helvetica;fontSize=11;fontColor=default;labelBackgroundColor=none;" vertex="1" parent="FFYDgnO3itLQL77O1pYT-73">
          <mxGeometry y="104" width="320" height="26" as="geometry" />
        </mxCell>
        <mxCell id="FFYDgnO3itLQL77O1pYT-72" value="iio_priv() -&amp;gt; custom_struct" style="text;strokeColor=#82b366;fillColor=#d5e8d4;align=left;verticalAlign=top;spacingLeft=4;spacingRight=4;overflow=hidden;rotatable=0;points=[[0,0.5],[1,0.5]];portConstraint=eastwest;whiteSpace=wrap;html=1;fontFamily=Helvetica;fontSize=11;labelBackgroundColor=none;" parent="FFYDgnO3itLQL77O1pYT-73" vertex="1">
          <mxGeometry y="130" width="320" height="26" as="geometry" />
        </mxCell>
        <mxCell id="FFYDgnO3itLQL77O1pYT-76" value="+ field: type" style="text;strokeColor=none;fillColor=none;align=left;verticalAlign=top;spacingLeft=4;spacingRight=4;overflow=hidden;rotatable=0;points=[[0,0.5],[1,0.5]];portConstraint=eastwest;whiteSpace=wrap;html=1;fontFamily=Helvetica;fontSize=11;fontColor=default;labelBackgroundColor=none;" parent="FFYDgnO3itLQL77O1pYT-73" vertex="1">
          <mxGeometry y="156" width="320" height="26" as="geometry" />
        </mxCell>
        <mxCell id="FFYDgnO3itLQL77O1pYT-81" style="edgeStyle=none;shape=connector;rounded=0;orthogonalLoop=1;jettySize=auto;html=1;exitX=1;exitY=0.5;exitDx=0;exitDy=0;strokeColor=default;align=left;verticalAlign=bottom;fontFamily=Helvetica;fontSize=11;fontColor=default;labelBackgroundColor=default;startArrow=none;startFill=0;startSize=14;endArrow=none;endSize=12;dashed=1;entryX=0;entryY=0.75;entryDx=0;entryDy=0;" parent="1" source="FFYDgnO3itLQL77O1pYT-72" target="FFYDgnO3itLQL77O1pYT-69" edge="1">
          <mxGeometry relative="1" as="geometry" />
        </mxCell>
        <mxCell id="FFYDgnO3itLQL77O1pYT-82" value="iio/sysfs.h" style="swimlane;fontStyle=0;childLayout=stackLayout;horizontal=1;startSize=26;fillColor=none;horizontalStack=0;resizeParent=1;resizeParentMax=0;resizeLast=0;collapsible=1;marginBottom=0;whiteSpace=wrap;html=1;fontFamily=Helvetica;fontSize=11;fontColor=default;labelBackgroundColor=none;dashed=1;strokeColor=default;align=center;verticalAlign=middle;" parent="1" vertex="1">
          <mxGeometry x="110" y="286" width="140" height="52" as="geometry" />
        </mxCell>
        <mxCell id="FFYDgnO3itLQL77O1pYT-83" value="iio_dev_attr" style="text;strokeColor=none;fillColor=none;align=left;verticalAlign=top;spacingLeft=4;spacingRight=4;overflow=hidden;rotatable=0;points=[[0,0.5],[1,0.5]];portConstraint=eastwest;whiteSpace=wrap;html=1;fontFamily=Helvetica;fontSize=11;fontColor=default;labelBackgroundColor=none;fontStyle=0;" parent="FFYDgnO3itLQL77O1pYT-82" vertex="1">
          <mxGeometry y="26" width="140" height="26" as="geometry" />
        </mxCell>
        <mxCell id="FFYDgnO3itLQL77O1pYT-105" style="edgeStyle=none;shape=connector;rounded=0;orthogonalLoop=1;jettySize=auto;html=1;entryX=0.5;entryY=0;entryDx=0;entryDy=0;strokeColor=default;align=left;verticalAlign=bottom;fontFamily=Helvetica;fontSize=11;fontColor=default;labelBackgroundColor=default;startArrow=diamondThin;startFill=0;startSize=14;endArrow=open;endSize=12;" parent="1" source="FFYDgnO3itLQL77O1pYT-86" target="FFYDgnO3itLQL77O1pYT-94" edge="1">
          <mxGeometry relative="1" as="geometry" />
        </mxCell>
        <mxCell id="FFYDgnO3itLQL77O1pYT-106" value="1" style="edgeLabel;html=1;align=center;verticalAlign=middle;resizable=0;points=[];fontFamily=Helvetica;fontSize=11;fontColor=default;labelBackgroundColor=none;" parent="FFYDgnO3itLQL77O1pYT-105" vertex="1" connectable="0">
          <mxGeometry x="-0.5962" y="1" relative="1" as="geometry">
            <mxPoint x="-11" y="-1" as="offset" />
          </mxGeometry>
        </mxCell>
        <mxCell id="FFYDgnO3itLQL77O1pYT-107" value="dev_attr" style="edgeLabel;html=1;align=center;verticalAlign=middle;resizable=0;points=[];fontFamily=Helvetica;fontSize=11;fontColor=default;labelBackgroundColor=#FFF2CC;" parent="FFYDgnO3itLQL77O1pYT-105" vertex="1" connectable="0">
          <mxGeometry x="-0.0249" y="1" relative="1" as="geometry">
            <mxPoint as="offset" />
          </mxGeometry>
        </mxCell>
        <mxCell id="FFYDgnO3itLQL77O1pYT-86" value="iio_dev_attr" style="swimlane;fontStyle=0;childLayout=stackLayout;horizontal=1;startSize=26;fillColor=none;horizontalStack=0;resizeParent=1;resizeParentMax=0;resizeLast=0;collapsible=1;marginBottom=0;whiteSpace=wrap;html=1;fontFamily=Helvetica;fontSize=11;fontColor=default;labelBackgroundColor=none;" parent="1" vertex="1">
          <mxGeometry x="290" y="286" width="140" height="78" as="geometry" />
        </mxCell>
        <mxCell id="FFYDgnO3itLQL77O1pYT-88" value="address: uint" style="text;strokeColor=none;fillColor=none;align=left;verticalAlign=top;spacingLeft=4;spacingRight=4;overflow=hidden;rotatable=0;points=[[0,0.5],[1,0.5]];portConstraint=eastwest;whiteSpace=wrap;html=1;fontFamily=Helvetica;fontSize=11;fontColor=default;labelBackgroundColor=none;" parent="FFYDgnO3itLQL77O1pYT-86" vertex="1">
          <mxGeometry y="26" width="140" height="26" as="geometry" />
        </mxCell>
        <mxCell id="FFYDgnO3itLQL77O1pYT-89" value="c: *iio_chan_spec" style="text;strokeColor=none;fillColor=none;align=left;verticalAlign=top;spacingLeft=4;spacingRight=4;overflow=hidden;rotatable=0;points=[[0,0.5],[1,0.5]];portConstraint=eastwest;whiteSpace=wrap;html=1;fontFamily=Helvetica;fontSize=11;fontColor=default;labelBackgroundColor=none;" parent="FFYDgnO3itLQL77O1pYT-86" vertex="1">
          <mxGeometry y="52" width="140" height="26" as="geometry" />
        </mxCell>
        <mxCell id="FFYDgnO3itLQL77O1pYT-90" value="device.h" style="swimlane;fontStyle=0;childLayout=stackLayout;horizontal=1;startSize=26;fillColor=none;horizontalStack=0;resizeParent=1;resizeParentMax=0;resizeLast=0;collapsible=1;marginBottom=0;whiteSpace=wrap;html=1;fontFamily=Helvetica;fontSize=11;fontColor=default;labelBackgroundColor=none;dashed=1;strokeColor=default;align=center;verticalAlign=middle;" parent="1" vertex="1">
          <mxGeometry x="110" y="453" width="140" height="52" as="geometry" />
        </mxCell>
        <mxCell id="FFYDgnO3itLQL77O1pYT-91" value="&lt;div&gt;device_attribute&lt;/div&gt;" style="text;strokeColor=none;fillColor=none;align=left;verticalAlign=top;spacingLeft=4;spacingRight=4;overflow=hidden;rotatable=0;points=[[0,0.5],[1,0.5]];portConstraint=eastwest;whiteSpace=wrap;html=1;fontFamily=Helvetica;fontSize=11;fontColor=default;labelBackgroundColor=none;fontStyle=0;" parent="FFYDgnO3itLQL77O1pYT-90" vertex="1">
          <mxGeometry y="26" width="140" height="26" as="geometry" />
        </mxCell>
        <mxCell id="FFYDgnO3itLQL77O1pYT-94" value="device_attribute" style="swimlane;fontStyle=0;childLayout=stackLayout;horizontal=1;startSize=26;fillColor=none;horizontalStack=0;resizeParent=1;resizeParentMax=0;resizeLast=0;collapsible=1;marginBottom=0;whiteSpace=wrap;html=1;fontFamily=Helvetica;fontSize=11;fontColor=default;labelBackgroundColor=none;" parent="1" vertex="1">
          <mxGeometry x="290" y="440" width="140" height="104" as="geometry" />
        </mxCell>
        <mxCell id="FFYDgnO3itLQL77O1pYT-95" value="+ field: type" style="text;strokeColor=none;fillColor=none;align=left;verticalAlign=top;spacingLeft=4;spacingRight=4;overflow=hidden;rotatable=0;points=[[0,0.5],[1,0.5]];portConstraint=eastwest;whiteSpace=wrap;html=1;fontFamily=Helvetica;fontSize=11;fontColor=default;labelBackgroundColor=none;" parent="FFYDgnO3itLQL77O1pYT-94" vertex="1">
          <mxGeometry y="26" width="140" height="26" as="geometry" />
        </mxCell>
        <mxCell id="FFYDgnO3itLQL77O1pYT-96" value="+ field: type" style="text;strokeColor=none;fillColor=none;align=left;verticalAlign=top;spacingLeft=4;spacingRight=4;overflow=hidden;rotatable=0;points=[[0,0.5],[1,0.5]];portConstraint=eastwest;whiteSpace=wrap;html=1;fontFamily=Helvetica;fontSize=11;fontColor=default;labelBackgroundColor=none;" parent="FFYDgnO3itLQL77O1pYT-94" vertex="1">
          <mxGeometry y="52" width="140" height="26" as="geometry" />
        </mxCell>
        <mxCell id="FFYDgnO3itLQL77O1pYT-97" value="+ field: type" style="text;strokeColor=none;fillColor=none;align=left;verticalAlign=top;spacingLeft=4;spacingRight=4;overflow=hidden;rotatable=0;points=[[0,0.5],[1,0.5]];portConstraint=eastwest;whiteSpace=wrap;html=1;fontFamily=Helvetica;fontSize=11;fontColor=default;labelBackgroundColor=none;" parent="FFYDgnO3itLQL77O1pYT-94" vertex="1">
          <mxGeometry y="78" width="140" height="26" as="geometry" />
        </mxCell>
        <mxCell id="FFYDgnO3itLQL77O1pYT-100" style="edgeStyle=none;shape=connector;rounded=0;orthogonalLoop=1;jettySize=auto;html=1;exitX=1;exitY=0.5;exitDx=0;exitDy=0;strokeColor=default;align=left;verticalAlign=bottom;fontFamily=Helvetica;fontSize=11;fontColor=default;labelBackgroundColor=default;startArrow=none;startFill=0;startSize=14;endArrow=none;endSize=12;dashed=1;" parent="1" source="FFYDgnO3itLQL77O1pYT-83" target="FFYDgnO3itLQL77O1pYT-86" edge="1">
          <mxGeometry relative="1" as="geometry" />
        </mxCell>
        <mxCell id="FFYDgnO3itLQL77O1pYT-102" style="edgeStyle=none;shape=connector;rounded=0;orthogonalLoop=1;jettySize=auto;html=1;strokeColor=default;align=left;verticalAlign=bottom;fontFamily=Helvetica;fontSize=11;fontColor=default;labelBackgroundColor=default;startArrow=none;startFill=0;startSize=14;endArrow=none;endSize=12;dashed=1;" parent="1" source="FFYDgnO3itLQL77O1pYT-91" target="FFYDgnO3itLQL77O1pYT-94" edge="1">
          <mxGeometry relative="1" as="geometry" />
        </mxCell>
        <mxCell id="tdU4zaPktYpznDprZkMg-7" style="rounded=0;orthogonalLoop=1;jettySize=auto;html=1;fontFamily=Helvetica;fontSize=11;fontColor=default;labelBackgroundColor=default;dashed=1;endArrow=none;startFill=0;exitX=1;exitY=0.5;exitDx=0;exitDy=0;entryX=0;entryY=0.25;entryDx=0;entryDy=0;" edge="1" parent="1" source="FFYDgnO3itLQL77O1pYT-74" target="FFYDgnO3itLQL77O1pYT-69">
          <mxGeometry relative="1" as="geometry">
            <mxPoint x="500" y="170" as="targetPoint" />
          </mxGeometry>
        </mxCell>
      </root>
    </mxGraphModel>
  </diagram>
</mxfile>
